# xmcd
#
# Track frame offsets: 
#        150
#        13915
#        27587
#        39514
#        54770
#        69755
#        79415
#        90465
#        104412
#        117665
#        131390
#        142337
#
# Disc length: 2093 seconds
#
# Revision: 2
# Processed by: cddbd v1.5.1PL2 Copyright (c) Steve Scherf et al.
# Submitted via: ExactAudioCopy v0.95b4
#
DISCID=a4082b0c
DTITLE=George Jones - 36 All Time Hits - Disc 2 - He Stopped Loving He
DTITLE=r Today
DYEAR=1993
DGENRE=Country
TTITLE0=Loving You Could Never Be Better
TTITLE1=I'll Take You to my World
TTITLE2=Once You've Had The Best
TTITLE3=Shine On
TTITLE4=I Always Get Lucky With You
TTITLE5=Kiss an Angel Good Morning
TTITLE6=She's My Rock
TTITLE7=You've Still Got a Place in My Heart
TTITLE8=Good Hearted Woman
TTITLE9=Golden Ring (with Tammy Wynette)
TTITLE10=Walk Through This World With Me
TTITLE11=He Stopped Loving Her Today
EXTD=
EXTT0=
EXTT1=
EXTT2=
EXTT3=
EXTT4=
EXTT5=
EXTT6=
EXTT7=
EXTT8=
EXTT9=
EXTT10=
EXTT11=
PLAYORDER=
